<svg width="213" height="45" viewBox="0 0 213 45" fill="none" xmlns="http://www.w3.org/2000/svg">
<g clip-path="url(#clip0_1_638)">
<path d="M80.802 17.4017V27.8974C80.802 28.433 80.5057 28.7293 79.9701 28.7293H77.235C76.6994 28.7293 76.4031 28.433 76.4031 27.8974V16.9345C76.4031 14.6325 75.7991 14.0968 73.8048 14.0968H69.1439C67.3433 14.0968 66.5456 14.5641 66.5456 16.9345V27.8974C66.5456 28.433 66.2493 28.7293 65.7137 28.7293H62.9786C62.443 28.7293 62.1467 28.433 62.1467 27.8974V10.8376C62.1467 10.302 62.443 10.0057 62.9786 10.0057H65.7137C66.2493 10.0057 66.5456 10.302 66.5456 10.8376V12.1709C67.3433 10.7692 68.8134 10.0057 71.3775 10.0057H73.9074C79.2407 10.0057 80.802 12.6382 80.802 17.4017Z" fill="#170C41"/>
<path d="M83.9701 21.3333V17.2991C83.9701 12.6723 85.5086 10.0057 90.8647 10.0057H95.5599C100.927 10.0057 102.454 12.6723 102.454 17.2991V20.2963C102.454 20.8319 102.158 21.1282 101.623 21.1282H88.3576V21.7892C88.3576 24.0911 88.9616 24.6268 90.9559 24.6268H100.118C100.654 24.6268 100.95 24.9231 100.95 25.4587V27.886C100.95 28.4216 100.654 28.7179 100.118 28.7179H90.8533C85.4858 28.7179 83.9587 26.0854 83.9587 21.3219L83.9701 21.3333ZM98.067 17.7664V16.9003C98.067 14.6325 97.4972 14.0968 95.4687 14.0968H90.9673C88.9388 14.0968 88.369 14.6325 88.369 16.9003V17.7664H98.067Z" fill="#170C41"/>
<path d="M122.956 28.7293H119.286C118.853 28.7293 118.523 28.5926 118.249 28.2279L113.452 22.1994L108.654 28.2279C108.392 28.5926 108.05 28.7293 107.617 28.7293H103.947C103.252 28.7293 103.013 28.2621 103.48 27.6923L110.739 19.0655L104.004 11.0313C103.537 10.4957 103.776 9.99429 104.472 9.99429H108.175C108.608 9.99429 108.939 10.131 109.212 10.4957L113.44 15.8974L117.668 10.4957C117.93 10.131 118.272 9.99429 118.705 9.99429H122.375C123.07 9.99429 123.309 10.4957 122.876 11.0313L116.175 19.0655L123.4 27.6923C123.868 28.2279 123.628 28.7293 122.933 28.7293H122.956Z" fill="#170C41"/>
<path d="M125.85 7.20227V4.2735C125.85 3.73789 126.147 3.44159 126.682 3.44159H129.417C129.953 3.44159 130.249 3.73789 130.249 4.2735V7.20227C130.249 7.73789 129.953 8.03418 129.417 8.03418H126.682C126.147 8.03418 125.85 7.73789 125.85 7.20227ZM125.85 27.8974V10.8376C125.85 10.302 126.147 10.0057 126.682 10.0057H129.417C129.953 10.0057 130.249 10.302 130.249 10.8376V27.8974C130.249 28.433 129.953 28.7293 129.417 28.7293H126.682C126.147 28.7293 125.85 28.433 125.85 27.8974Z" fill="#170C41"/>
<path d="M133.645 21.3333V17.2991C133.645 12.6723 135.172 10.0057 140.54 10.0057H146.067C150.796 10.0057 152.734 12 152.927 16.604C152.962 17.1738 152.665 17.4701 152.13 17.4701H149.395C148.859 17.4701 148.563 17.1738 148.563 16.604C148.46 14.6097 147.924 14.1082 145.964 14.1082H140.631C138.603 14.1082 138.033 14.6439 138.033 16.9117V21.8119C138.033 24.1139 138.637 24.6495 140.631 24.6495H145.964C147.993 24.6495 148.46 24.1139 148.563 22.0854C148.563 21.5156 148.859 21.2194 149.395 21.2194H152.13C152.665 21.2194 152.962 21.5156 152.927 22.0854C152.722 26.8832 150.728 28.7521 146.067 28.7521H140.54C135.172 28.7521 133.645 26.1196 133.645 21.3561V21.3333Z" fill="#170C41"/>
<path d="M154.945 23.4302C154.945 19.6353 156.38 18.2336 160.905 17.7664L167.902 17.0712C168.699 16.9687 168.973 16.5698 168.973 15.8746C168.973 14.5071 168.369 14.1083 166.637 14.1083H157.269C156.734 14.1083 156.437 13.812 156.437 13.2763V10.849C156.437 10.3134 156.734 10.0171 157.269 10.0171H166.728C171.526 10.0171 173.36 11.7151 173.36 15.51V27.9088C173.36 28.4444 173.064 28.7407 172.529 28.7407H169.794C169.258 28.7407 168.962 28.4444 168.962 27.9088V26.3476C168.096 27.943 166.762 28.7521 163.868 28.7521H161.93C157.463 28.7521 154.933 27.2251 154.933 23.453L154.945 23.4302ZM166.01 24.7635C168.209 24.7635 168.973 24.0342 168.973 21.9031V20.3077L161.645 21.037C159.879 21.208 159.378 21.698 159.378 23.0085C159.378 24.2051 160.244 24.7749 161.907 24.7749H166.01V24.7635Z" fill="#170C41"/>
<path d="M176.939 27.8974V4.2735C176.939 3.73789 177.235 3.44159 177.771 3.44159H180.506C181.041 3.44159 181.338 3.73789 181.338 4.2735V27.8974C181.338 28.433 181.041 28.7293 180.506 28.7293H177.771C177.235 28.7293 176.939 28.433 176.939 27.8974Z" fill="#170C41"/>
<path d="M184.563 9.77779C184.563 7.92024 185.258 7.23648 187.48 7.00856L190.899 6.66668C191.286 6.62109 191.423 6.42736 191.423 6.08548C191.423 5.41311 191.127 5.21938 190.284 5.21938H185.702C185.44 5.21938 185.292 5.07123 185.292 4.80913V3.62394C185.292 3.36183 185.44 3.21368 185.702 3.21368H190.329C192.677 3.21368 193.577 4.04559 193.577 5.90314V11.9658C193.577 12.2279 193.429 12.3761 193.167 12.3761H191.833C191.571 12.3761 191.423 12.2279 191.423 11.9658V11.2023C191.001 11.9886 190.352 12.3761 188.927 12.3761H187.982C185.794 12.3761 184.563 11.6239 184.563 9.78918V9.77779ZM189.976 10.4274C191.047 10.4274 191.423 10.0741 191.423 9.02565V8.23933L187.833 8.5926C186.967 8.67237 186.728 8.92309 186.728 9.54987C186.728 10.1311 187.15 10.416 187.97 10.416H189.976V10.4274Z" fill="#170C41"/>
<path d="M195.321 1.84615V0.410256C195.321 0.148148 195.469 0 195.731 0H197.064C197.326 0 197.474 0.148148 197.474 0.410256V1.84615C197.474 2.10826 197.326 2.25641 197.064 2.25641H195.731C195.469 2.25641 195.321 2.10826 195.321 1.84615ZM195.321 11.9658V3.61254C195.321 3.35043 195.469 3.20228 195.731 3.20228H197.064C197.326 3.20228 197.474 3.35043 197.474 3.61254V11.9544C197.474 12.2165 197.326 12.3647 197.064 12.3647H195.731C195.469 12.3647 195.321 12.2165 195.321 11.9544V11.9658Z" fill="#170C41"/>
<path d="M180.699 10.1197H182.033C182.261 10.1197 182.443 10.302 182.443 10.5299V11.9658C182.443 12.1937 182.261 12.3761 182.033 12.3761H180.699C180.471 12.3761 180.289 12.1937 180.289 11.9658V10.5299C180.289 10.302 180.471 10.1197 180.699 10.1197Z" fill="white"/>
<path d="M181.326 12.3647V10.1197H182.033C182.261 10.1197 182.443 10.302 182.443 10.5299V11.9658C182.443 12.1937 182.261 12.3761 182.033 12.3761H181.326V12.3647Z" fill="#170C41"/>
<path d="M28.3233 22.6097L38.7735 35.51C37.4857 35.8291 36.1524 36 34.7621 36H28.3233V22.6097ZM15.537 16.7749V36H20.3347V11.6695C20.3347 10.302 21.292 9.34473 22.6595 9.34473H26.0327C26.933 9.34473 27.7193 9.7208 28.2777 10.4274L40.3689 25.4473V0.0797729H32.1182C22.9558 0.136753 15.537 7.58974 15.537 16.7749ZM48.3689 0.0797729V28.9801C49.5085 27.3846 50.3746 25.5726 50.8988 23.6239C51.2749 22.245 51.4686 20.7977 51.4686 19.3048V0.0797729H48.3803H48.3689Z" fill="#024BFF"/>
<mask id="mask0_1_638" style="mask-type:luminance" maskUnits="userSpaceOnUse" x="15" y="0" width="37" height="36">
<path d="M28.3233 22.6097L38.7735 35.51C37.4857 35.8291 36.1524 36 34.7621 36H28.3233V22.6097ZM15.537 16.7749V36H20.3347V11.6695C20.3347 10.302 21.292 9.34473 22.6595 9.34473H26.0327C26.933 9.34473 27.7193 9.7208 28.2777 10.4274L40.3689 25.4473V0.0797729H32.1182C22.9558 0.136753 15.537 7.58974 15.537 16.7749ZM48.3689 0.0797729V28.9801C49.5085 27.3846 50.3746 25.5726 50.8988 23.6239C51.2749 22.245 51.4686 20.7977 51.4686 19.3048V0.0797729H48.3803H48.3689Z" fill="white"/>
</mask>
<g mask="url(#mask0_1_638)">
<path d="M32.1296 0.0797729H51.4573V24.3419L32.1296 0.0797729Z" fill="#00D6B5"/>
</g>
</g>
<defs>
<clipPath id="clip0_1_638">
<rect width="181.926" height="36" fill="white" transform="translate(15.537)"/>
</clipPath>
</defs>
</svg>
