<svg width="189" height="38" viewBox="0 0 189 38" fill="none" xmlns="http://www.w3.org/2000/svg">
<g clip-path="url(#clip0_17_129)">
<path d="M60.4701 10.3599H57.85C55.19 10.3599 53.67 11.1499 52.85 12.5999V11.2199C52.85 10.6699 52.5401 10.3599 51.9901 10.3599H49.16C48.61 10.3599 48.3 10.6699 48.3 11.2199V28.8899C48.3 29.4399 48.61 29.7499 49.16 29.7499H51.9901C52.5401 29.7499 52.85 29.4399 52.85 28.8899V17.5299C52.85 15.0799 53.6801 14.5999 55.5401 14.5999H60.37C62.44 14.5999 63.0601 15.1499 63.0601 17.5299V28.8899C63.0601 29.4399 63.37 29.7499 63.92 29.7499H66.75C67.3 29.7499 67.6101 29.4399 67.6101 28.8899V18.0199C67.6101 13.0799 65.9901 10.3599 60.4701 10.3599Z" fill="white"/>
<path d="M82.9 10.3599H78.03C72.47 10.3599 70.89 13.1199 70.89 17.9199V22.0999C70.89 27.0399 72.48 29.7599 78.03 29.7599H87.63C88.18 29.7599 88.49 29.4499 88.49 28.8999V26.3799C88.49 25.8299 88.18 25.5199 87.63 25.5199H78.14C76.07 25.5199 75.45 24.9699 75.45 22.5899V21.8999H89.19C89.74 21.8999 90.05 21.5899 90.05 21.0399V17.9299C90.05 13.1299 88.46 10.3699 82.91 10.3699L82.9 10.3599ZM85.49 18.3999H75.45V17.4999C75.45 15.1499 76.04 14.5999 78.14 14.5999H82.8C84.91 14.5999 85.49 15.1499 85.49 17.4999V18.3999Z" fill="white"/>
<path d="M111.76 28.6899L104.27 19.7499L111.21 11.4299C111.66 10.8799 111.42 10.3599 110.69 10.3599H106.89C106.44 10.3599 106.1 10.4999 105.82 10.8799L101.44 16.4699L97.0601 10.8799C96.7801 10.4999 96.4401 10.3599 95.9901 10.3599H92.1601C91.4401 10.3599 91.1901 10.8799 91.6801 11.4299L98.6501 19.7499L91.1301 28.6899C90.6501 29.2799 90.8901 29.7599 91.6101 29.7599H95.4101C95.8601 29.7599 96.2001 29.6199 96.4801 29.2399L101.45 22.9899L106.42 29.2399C106.7 29.6199 107.04 29.7599 107.49 29.7599H111.29C112.01 29.7599 112.26 29.2399 111.77 28.6899H111.76Z" fill="white"/>
<path d="M117.97 10.3601H115.14C114.59 10.3601 114.28 10.6701 114.28 11.2201V28.8901C114.28 29.4401 114.59 29.7501 115.14 29.7501H117.97C118.52 29.7501 118.83 29.4401 118.83 28.8901V11.2301C118.83 10.6801 118.52 10.3701 117.97 10.3701V10.3601ZM117.97 3.56006H115.14C114.59 3.56006 114.28 3.87006 114.28 4.42006V7.46006C114.28 8.01006 114.59 8.32006 115.14 8.32006H117.97C118.52 8.32006 118.83 8.01006 118.83 7.46006V4.42006C118.83 3.87006 118.52 3.56006 117.97 3.56006Z" fill="white"/>
<path d="M141.51 21.9599H138.68C138.13 21.9599 137.82 22.2699 137.82 22.8599C137.72 24.9699 137.23 25.5199 135.13 25.5199H129.61C127.54 25.5199 126.92 24.9699 126.92 22.5899V17.5199C126.92 15.1699 127.51 14.6199 129.61 14.6199H135.13C137.17 14.6199 137.72 15.1399 137.82 17.2099C137.82 17.7999 138.13 18.1099 138.68 18.1099H141.51C142.06 18.1099 142.37 17.7999 142.34 17.2099C142.13 12.4499 140.13 10.3799 135.23 10.3799H129.51C123.95 10.3799 122.37 13.1399 122.37 17.9399V22.1199C122.37 27.0599 123.96 29.7799 129.51 29.7799H135.23C140.06 29.7799 142.13 27.8499 142.34 22.8799C142.37 22.2899 142.06 21.9799 141.51 21.9799V21.9599Z" fill="white"/>
<path d="M156.62 10.3598H146.82C146.27 10.3598 145.96 10.6698 145.96 11.2198V13.7398C145.96 14.2898 146.27 14.5998 146.82 14.5998H156.51C158.31 14.5998 158.93 15.0098 158.93 16.4298C158.93 17.1498 158.65 17.5698 157.83 17.6698L150.59 18.3898C145.9 18.8698 144.41 20.3198 144.41 24.2598C144.41 28.1998 147.03 29.7498 151.66 29.7498H153.66C156.66 29.7498 158.04 28.9198 158.94 27.2598V28.8798C158.94 29.4298 159.25 29.7398 159.8 29.7398H162.63C163.18 29.7398 163.49 29.4298 163.49 28.8798V16.0398C163.49 12.1098 161.59 10.3398 156.62 10.3398V10.3598ZM158.93 22.6798C158.93 24.8898 158.14 25.6498 155.86 25.6498H151.62C149.89 25.6498 148.99 25.0598 148.99 23.8198C148.99 22.4698 149.51 21.9598 151.34 21.7798L158.93 21.0198V22.6798Z" fill="white"/>
<path d="M171.09 10.4801H171.74V4.42006C171.74 3.87006 171.43 3.56006 170.88 3.56006H168.06C167.51 3.56006 167.2 3.87006 167.2 4.42006V28.8901C167.2 29.4401 167.51 29.7501 168.06 29.7501H170.88C171.43 29.7501 171.74 29.4401 171.74 28.8901V12.8101H171.09C170.82 12.8101 170.66 12.6501 170.66 12.3901V10.9001C170.66 10.6301 170.82 10.4801 171.09 10.4801Z" fill="white"/>
<path d="M175.09 10.1298C175.09 8.20984 175.82 7.49984 178.11 7.25984L181.65 6.90984C182.06 6.85984 182.19 6.65984 182.19 6.29984C182.19 5.60984 181.89 5.40984 181.01 5.40984H176.27C176 5.40984 175.85 5.25984 175.85 4.98984V3.75984C175.85 3.48984 176 3.33984 176.27 3.33984H181.06C183.49 3.33984 184.42 4.19984 184.42 6.11984V12.3998C184.42 12.6698 184.27 12.8198 184 12.8198H182.62C182.35 12.8198 182.2 12.6698 182.2 12.3998V11.6098C181.76 12.4198 181.09 12.8298 179.62 12.8298H178.64C176.38 12.8298 175.1 12.0498 175.1 10.1498L175.09 10.1298ZM180.69 10.7998C181.8 10.7998 182.19 10.4298 182.19 9.34984V8.53984L178.48 8.90984C177.59 8.98984 177.33 9.24984 177.33 9.90984C177.33 10.5198 177.77 10.7998 178.61 10.7998H180.69Z" fill="white"/>
<path d="M186.23 1.91V0.42C186.23 0.15 186.38 0 186.65 0H188.03C188.3 0 188.45 0.15 188.45 0.42V1.91C188.45 2.18 188.3 2.33 188.03 2.33H186.65C186.38 2.33 186.23 2.18 186.23 1.91ZM186.23 12.39V3.75C186.23 3.48 186.38 3.33 186.65 3.33H188.03C188.3 3.33 188.45 3.48 188.45 3.75V12.39C188.45 12.66 188.3 12.81 188.03 12.81H186.65C186.38 12.81 186.23 12.66 186.23 12.39Z" fill="white"/>
<path d="M172.89 10.9002V12.3902C172.89 12.3902 172.89 12.4502 172.89 12.4802C172.86 12.6602 172.75 12.7802 172.56 12.8002C172.53 12.8002 172.5 12.8002 172.47 12.8002H171.74V10.4702H172.47C172.47 10.4702 172.53 10.4702 172.56 10.4702C172.75 10.4902 172.86 10.6102 172.89 10.8002C172.89 10.8302 172.89 10.8602 172.89 10.8902V10.9002Z" fill="white"/>
<path d="M172.89 10.9002V12.3902C172.89 12.3902 172.89 12.4502 172.89 12.4802C172.85 12.6402 172.72 12.7702 172.56 12.8002C172.53 12.8002 172.5 12.8002 172.47 12.8002H171.74V10.4702H172.47C172.47 10.4702 172.53 10.4702 172.56 10.4702C172.73 10.5002 172.85 10.6402 172.89 10.8002C172.89 10.8302 172.89 10.8602 172.89 10.8902V10.9002Z" fill="white"/>
<path d="M13.24 23.4301L24.07 36.7901C22.74 37.1201 21.35 37.3001 19.92 37.3001H13.25V23.4301H13.24ZM0 17.3801V37.3001H4.96V12.0901C4.96 10.6701 5.95 9.68008 7.37 9.68008H10.87C11.81 9.68008 12.61 10.0701 13.2 10.8001L25.73 26.3601V0.0800781H17.19C7.69 0.140078 0 7.86008 0 17.3801ZM34.01 0.0800781V30.0201C35.2 28.3601 36.09 26.4901 36.63 24.4701C37.02 23.0401 37.22 21.5501 37.22 20.0001V0.0800781H34.02H34.01Z" fill="white"/>
<mask id="mask0_17_129" style="mask-type:luminance" maskUnits="userSpaceOnUse" x="0" y="0" width="38" height="38">
<path d="M13.24 23.4301L24.07 36.7901C22.74 37.1201 21.35 37.3001 19.92 37.3001H13.25V23.4301H13.24ZM0 17.3801V37.3001H4.96V12.0901C4.96 10.6701 5.95 9.68008 7.37 9.68008H10.87C11.81 9.68008 12.61 10.0701 13.2 10.8001L25.73 26.3601V0.0800781H17.19C7.69 0.140078 0 7.86008 0 17.3801ZM34.01 0.0800781V30.0201C35.2 28.3601 36.09 26.4901 36.63 24.4701C37.02 23.0401 37.22 21.5501 37.22 20.0001V0.0800781H34.02H34.01Z" fill="white"/>
</mask>
<g mask="url(#mask0_17_129)">
<path d="M17.1899 0.0800781H37.2199V25.2101L17.1899 0.0800781Z" fill="white"/>
</g>
</g>
<defs>
<clipPath id="clip0_17_129">
<rect width="188.46" height="37.3" fill="white"/>
</clipPath>
</defs>
</svg>
